
<svg xmlns="http://www.w3.org/2000/svg"  width="1000" height="1000" viewBox="0 0 320 400">


<path fill-rule="evenodd" fill="#FFFFFF" fill-opacity="1" d="M 923.664062 1383.964844 C 883.34375 1352.710938 839.894531 1329.824219 795.992188 1309.449219 C 764.59375 1299.679688 733.589844 1288.726562 702.046875 1280.175781 C 735.191406 1274.617188 766.457031 1290.964844 798.402344 1296.144531 C 834.449219 1298.351562 826.113281 1235.871094 826.101562 1209.652344 C 779.085938 1191.445312 727.121094 1191.167969 677.960938 1181.710938 C 662.71875 1180.53125 647.464844 1180.085938 632.1875 1180.378906 C 636.171875 1160.707031 625.703125 1142.148438 605.691406 1144.453125 L 529.8125 1143.121094 L 453.933594 1144.453125 L 441.890625 1147.113281 C 395.039062 1149.429688 348.5625 1161.835938 304.585938 1179.050781 C 294.324219 1188.765625 304.136719 1205.375 303.378906 1217.636719 C 307.421875 1220.292969 310.199219 1234.316406 302.175781 1230.941406 C 247.855469 1254.253906 193.492188 1278.3125 145.597656 1316.101562 C 141.0625 1334.011719 143.464844 1354.492188 154.027344 1369.328125 C 162.792969 1379.035156 163.324219 1400.390625 178.117188 1401.261719 C 204.175781 1390.652344 226.175781 1367.835938 252.792969 1356.019531 C 262.601562 1352.851562 264.902344 1364.4375 267.246094 1371.992188 C 280.507812 1391.339844 252.351562 1395.214844 241.953125 1402.59375 C 232.550781 1409.941406 218.914062 1405.941406 211.839844 1417.230469 C 199.714844 1442.984375 232.824219 1469.65625 220.273438 1490.414062 C 204.945312 1498.214844 174.460938 1483.175781 168.480469 1505.050781 C 161.246094 1525.109375 166.367188 1548.058594 168.480469 1568.921875 C 167.972656 1578.820312 172.304688 1595.105469 184.140625 1588.878906 C 191.726562 1589.777344 194.988281 1608.230469 209.433594 1600.855469 C 246.71875 1593.378906 284.867188 1581.441406 323.855469 1578.234375 C 394.53125 1570.09375 466.207031 1577.484375 535.835938 1583.558594 C 523.796875 1576.46875 510.089844 1576.433594 497.296875 1570.253906 C 475.648438 1566.464844 453.6875 1564.777344 432.253906 1559.605469 C 478.097656 1554.996094 523.546875 1567.269531 567.152344 1580.898438 C 575.417969 1578.230469 587.691406 1587.429688 579.195312 1591.542969 C 572.648438 1589.714844 566.230469 1590.285156 559.925781 1592.871094 C 584.203125 1591.535156 606.507812 1627.921875 627.371094 1604.847656 C 647.5 1582.039062 663.105469 1551.1875 657.484375 1518.359375 C 639.167969 1494.035156 606.425781 1499.582031 581.601562 1487.753906 C 552.9375 1483.921875 524.570312 1478.179688 496.089844 1473.117188 L 487.65625 1470.453125 C 560.210938 1463.027344 632.351562 1476.839844 704.453125 1483.761719 C 720.0625 1487.019531 731.636719 1473.785156 735.769531 1458.480469 C 748.164062 1450.332031 764.386719 1461.667969 776.722656 1466.464844 C 804.09375 1476.449219 829.765625 1489.207031 856.214844 1501.058594 C 877.203125 1518.507812 902.824219 1508.398438 914.027344 1482.429688 C 926.347656 1455.273438 950.097656 1409.121094 923.664062 1383.964844 "/>

</svg>




